<svg xmlns="http://www.w3.org/2000/svg" width="29" height="28" viewBox="0 0 29 28" fill="none">
<path d="M14.2227 -0.00585938C6.37387 -0.00585938 0 6.21138 0 13.8673C0 21.5232 6.37387 27.7434 14.2227 27.7434C22.0714 27.7434 28.4453 21.5261 28.4453 13.8702C28.4453 6.21434 22.0714 -0.00585938 14.2227 -0.00585938ZM18.4891 3.59118V19.2111L10.5092 3.38577C11.7032 2.98187 12.9575 2.77364 14.2211 2.76951C15.6856 2.76375 17.1366 3.0431 18.4891 3.59118ZM2.84453 13.8673C2.84185 12.2035 3.22418 10.5606 3.96303 9.06101C4.70187 7.56143 5.77817 6.24384 7.1117 5.20645V22.5252C5.77857 21.4881 4.70251 20.171 3.96368 18.6719C3.22486 17.1729 2.84231 15.5306 2.84453 13.8673ZM9.92894 24.1434V8.52345L17.9103 24.3496C16.7164 24.7534 15.4621 24.9617 14.1984 24.9658C12.7333 24.9715 11.2818 24.6919 9.92894 24.1434ZM21.3336 22.5252V5.20645C22.6653 6.24479 23.7405 7.56213 24.4794 9.06091C25.2183 10.5596 25.6019 12.2013 25.6019 13.8643C25.6019 15.5274 25.2183 17.1691 24.4794 18.6678C23.7405 20.1665 22.6653 21.4839 21.3336 22.5222V22.5252Z" fill="#5D73F5"/>
</svg>